<?xml version="1.0" standalone="no"?>
<!DOCTYPE svg PUBLIC "-//W3C//DTD SVG 20010904//EN"
 "http://www.w3.org/TR/2001/REC-SVG-20010904/DTD/svg10.dtd">
<svg version="1.0" xmlns="http://www.w3.org/2000/svg"
 width="960.000000pt" height="960.000000pt" viewBox="0 0 960.000000 960.000000"
 preserveAspectRatio="xMidYMid meet">
<metadata>
Created by potrace 1.14, written by Peter Selinger 2001-2017
</metadata>
<g transform="translate(0.000000,960.000000) scale(0.100000,-0.100000)"
fill="#000000" stroke="none">
<path d="M5168 9585 c-2 -1 -46 -6 -98 -9 -93 -7 -130 -10 -220 -22 -25 -3
-61 -7 -80 -10 -19 -2 -51 -7 -70 -10 -19 -3 -46 -7 -60 -9 -14 -2 -72 -13
-130 -24 -58 -12 -114 -23 -125 -25 -11 -2 -32 -9 -47 -15 -16 -6 -28 -9 -28
-7 0 2 -42 -7 -92 -20 -51 -14 -102 -27 -112 -29 -11 -3 -49 -14 -85 -26 -36
-12 -68 -22 -71 -22 -3 1 -27 -8 -55 -19 -27 -11 -52 -20 -55 -20 -3 0 -15 -4
-28 -9 -13 -5 -25 -9 -28 -9 -7 0 -247 -96 -309 -125 -114 -51 -310 -149 -316
-158 -3 -5 -8 -8 -10 -8 -13 2 -49 -13 -49 -20 0 -5 -4 -9 -9 -9 -13 0 -135
-73 -139 -82 -2 -5 -9 -8 -15 -8 -10 0 -225 -137 -237 -151 -3 -3 -20 -14 -37
-24 -18 -11 -33 -23 -33 -27 0 -4 -4 -8 -10 -8 -9 0 -35 -19 -65 -47 -8 -7
-16 -13 -20 -13 -4 0 -12 -6 -19 -12 -7 -7 -28 -24 -46 -38 -177 -132 -426
-368 -639 -605 -133 -148 -431 -551 -431 -583 0 -7 -4 -12 -8 -12 -5 0 -21
-22 -36 -50 -15 -27 -31 -52 -37 -55 -5 -4 -7 -11 -4 -16 4 -5 2 -9 -3 -9 -5
0 -12 -8 -15 -17 -4 -10 -20 -40 -36 -68 -52 -86 -180 -349 -247 -508 -33 -78
-124 -326 -130 -351 -2 -11 -11 -42 -21 -70 -9 -28 -17 -53 -18 -56 0 -3 -4
-11 -8 -17 -5 -7 -6 -13 -3 -13 2 0 0 -15 -5 -32 -17 -55 -49 -181 -55 -212
-3 -16 -7 -32 -9 -35 -2 -4 -6 -27 -10 -51 -4 -25 -13 -73 -21 -108 -8 -35
-12 -67 -9 -72 4 -6 1 -10 -6 -10 -7 0 -10 -2 -7 -5 3 -3 2 -25 -3 -48 -4 -23
-10 -73 -14 -112 -4 -38 -9 -73 -11 -76 -5 -8 -16 -147 -18 -211 -1 -27 -4
-48 -7 -48 -8 0 -3 -657 5 -715 3 -22 7 -62 10 -90 9 -99 32 -270 36 -270 1 0
3 -16 5 -35 3 -35 10 -73 21 -120 3 -13 7 -40 10 -58 2 -19 6 -37 9 -41 2 -4
7 -23 10 -42 4 -19 8 -38 9 -44 2 -5 6 -23 10 -40 10 -43 47 -187 53 -205 2
-8 4 -16 4 -17 0 -2 6 -21 14 -44 9 -23 17 -51 19 -63 2 -12 11 -39 19 -61 8
-22 18 -49 23 -60 4 -11 8 -26 10 -33 4 -23 85 -222 137 -342 106 -239 307
-604 399 -721 15 -20 28 -42 28 -48 0 -6 5 -11 10 -11 6 0 10 -7 10 -15 0 -8
4 -15 9 -15 5 0 12 -8 15 -17 3 -10 16 -29 28 -43 13 -14 34 -42 48 -62 14
-21 28 -38 33 -38 4 0 7 -5 7 -11 0 -7 8 -19 18 -28 9 -9 31 -34 47 -56 16
-21 36 -47 45 -55 8 -9 25 -29 37 -44 80 -104 387 -412 501 -503 26 -21 49
-41 52 -45 3 -3 46 -38 95 -77 50 -39 96 -75 102 -81 15 -13 127 -92 200 -143
30 -20 59 -37 64 -37 5 0 9 -4 9 -10 0 -5 7 -10 15 -10 8 0 15 -4 15 -10 0 -5
5 -10 11 -10 6 0 30 -13 54 -30 24 -16 48 -30 54 -30 6 0 11 -4 11 -9 0 -5 10
-13 23 -17 12 -3 33 -14 47 -24 14 -9 59 -34 100 -56 41 -21 78 -42 81 -47 3
-5 9 -8 13 -8 3 1 48 -18 99 -43 146 -69 178 -83 309 -135 125 -49 297 -110
378 -132 55 -15 52 -14 70 -22 20 -8 298 -77 330 -82 14 -2 61 -11 105 -20 44
-9 91 -18 105 -20 28 -3 116 -16 144 -21 10 -2 44 -6 75 -9 31 -3 65 -8 76
-10 59 -12 271 -20 510 -20 280 0 391 6 585 31 25 3 63 8 85 10 22 3 51 7 65
10 14 2 41 6 60 9 41 6 75 13 75 15 0 1 14 3 30 5 24 3 81 14 105 20 10 2 165
38 175 40 6 1 30 7 55 14 25 8 52 15 60 16 8 2 15 4 15 5 0 1 7 3 16 5 9 1 68
20 130 40 63 21 120 38 127 38 6 0 12 4 12 9 0 4 3 7 8 6 11 -2 66 14 78 24 7
5 21 10 31 12 19 4 229 89 262 106 9 5 72 36 141 69 168 82 357 185 370 201 3
4 13 9 22 13 10 3 51 29 93 57 41 27 77 50 80 50 4 0 12 6 19 13 8 6 24 19 36
27 100 66 343 256 414 323 20 19 36 33 36 30 0 -2 15 11 33 29 19 18 64 61
100 95 37 35 67 65 67 68 0 3 -763 768 -1695 1700 l-1695 1695 1350 1352 c743
744 1430 1433 1527 1531 97 97 179 177 182 178 3 1 38 36 76 79 39 43 75 79
80 80 6 2 47 42 93 90 l82 87 -28 29 c-32 33 -138 131 -200 185 -22 20 -43 34
-47 31 -3 -3 -5 -1 -5 5 0 19 -253 216 -410 320 -19 12 -40 27 -46 32 -23 19
-176 111 -185 111 -5 0 -9 5 -9 10 0 6 -4 10 -9 10 -5 0 -51 24 -102 53 -130
73 -341 175 -484 234 -153 64 -229 94 -246 97 -8 2 -23 6 -34 10 -11 5 -38 15
-60 23 -22 8 -49 17 -61 19 -12 2 -40 10 -63 19 -23 8 -43 15 -46 15 -3 0 -10
2 -17 4 -12 4 -101 26 -222 57 -27 7 -59 14 -70 15 -12 1 -21 3 -21 4 0 2 -18
6 -60 13 -11 2 -33 7 -50 10 -16 4 -43 9 -60 12 -16 3 -41 7 -55 10 -26 5 -70
12 -135 20 -22 3 -51 7 -65 9 -32 6 -149 17 -222 21 -32 2 -62 7 -68 10 -5 3
-10 1 -10 -5 0 -7 -6 -8 -17 -1 -15 7 -547 13 -555 6z"/>
</g>
</svg>
